<svg width="10" height="5" viewBox="0 0 10 5" fill="none" xmlns="http://www.w3.org/2000/svg">
<path d="M5.00002 4.66666C4.84425 4.66697 4.6933 4.61272 4.57336 4.51333L0.573354 1.18C0.43721 1.06684 0.351594 0.904229 0.335341 0.727945C0.319087 0.551661 0.373529 0.37614 0.486688 0.239995C0.599847 0.103851 0.762454 0.0182349 0.938739 0.00198178C1.11502 -0.0142714 1.29054 0.0401696 1.42669 0.153329L5.00002 3.14L8.57336 0.259996C8.64155 0.204618 8.72001 0.163264 8.80424 0.13831C8.88846 0.113355 8.97679 0.105292 9.06414 0.114585C9.1515 0.123878 9.23615 0.150343 9.31324 0.192459C9.39033 0.234574 9.45834 0.291511 9.51336 0.359996C9.57441 0.428543 9.62065 0.508961 9.64918 0.59621C9.67771 0.683459 9.68791 0.775659 9.67915 0.867035C9.67038 0.958411 9.64285 1.04699 9.59826 1.12723C9.55367 1.20747 9.49299 1.27763 9.42002 1.33333L5.42002 4.55333C5.29663 4.63701 5.14876 4.67691 5.00002 4.66666Z" fill="#E5E5E5"/>
</svg>
