<svg width="11" height="8" viewBox="0 0 11 8" fill="none" xmlns="http://www.w3.org/2000/svg">
<path d="M3.99926 6.66667H6.66593C6.83585 6.66686 6.99928 6.73192 7.12284 6.84857C7.2464 6.96521 7.32075 7.12464 7.33071 7.29426C7.34067 7.46389 7.28548 7.63092 7.17642 7.76122C7.06736 7.89152 6.91266 7.97526 6.74393 7.99533L6.66593 8H3.99926C3.82934 7.99981 3.66591 7.93475 3.54235 7.8181C3.41879 7.70146 3.34444 7.54203 3.33448 7.3724C3.32452 7.20278 3.37971 7.03575 3.48877 6.90545C3.59783 6.77514 3.75253 6.6914 3.92126 6.67133L3.99926 6.66667H6.66593H3.99926ZM2.66593 3.33333H7.99926C8.16918 3.33352 8.33262 3.39859 8.45617 3.51523C8.57973 3.63188 8.65408 3.7913 8.66404 3.96093C8.674 4.13056 8.61881 4.29759 8.50975 4.42789C8.40069 4.55819 8.24599 4.64193 8.07726 4.662L7.99926 4.66667H2.66593C2.49601 4.66648 2.33257 4.60141 2.20902 4.48477C2.08546 4.36812 2.0111 4.2087 2.00115 4.03907C1.99119 3.86944 2.04638 3.70241 2.15544 3.57211C2.2645 3.44181 2.4192 3.35807 2.58793 3.338L2.66593 3.33333H7.99926H2.66593ZM0.665928 0H9.99926C10.1692 0.000188472 10.3326 0.0652526 10.4562 0.181899C10.5797 0.298545 10.6541 0.457969 10.664 0.627597C10.674 0.797224 10.6188 0.964253 10.5098 1.09455C10.4007 1.22486 10.246 1.3086 10.0773 1.32867L9.99926 1.33333H0.665928C0.496008 1.33314 0.332573 1.26808 0.209016 1.15143C0.0854582 1.03479 0.0111048 0.875365 0.00114669 0.705737C-0.00881139 0.536109 0.0463777 0.369081 0.155438 0.238778C0.264498 0.108476 0.419197 0.0247357 0.587928 0.00466665L0.665928 0H9.99926H0.665928Z" fill="#AFB0C1"/>
</svg>
