<svg width="10" height="5" viewBox="0 0 10 5" fill="none" xmlns="http://www.w3.org/2000/svg">
<path d="M4.99953 4.66666C4.84377 4.66697 4.69281 4.61272 4.57287 4.51333L0.572866 1.18C0.436722 1.06684 0.351105 0.904229 0.334852 0.727945C0.318599 0.551661 0.37304 0.37614 0.486199 0.239995C0.599358 0.103851 0.761966 0.0182349 0.93825 0.00198178C1.11453 -0.0142714 1.29006 0.0401696 1.4262 0.153329L4.99953 3.14L8.57287 0.259996C8.64106 0.204618 8.71952 0.163264 8.80375 0.13831C8.88798 0.113355 8.9763 0.105292 9.06366 0.114585C9.15101 0.123878 9.23566 0.150343 9.31275 0.192459C9.38985 0.234574 9.45785 0.291511 9.51287 0.359996C9.57392 0.428543 9.62016 0.508961 9.64869 0.59621C9.67722 0.683459 9.68742 0.775659 9.67866 0.867035C9.6699 0.958411 9.64236 1.04699 9.59777 1.12723C9.55318 1.20747 9.4925 1.27763 9.41953 1.33333L5.41953 4.55333C5.29614 4.63701 5.14827 4.67691 4.99953 4.66666Z" fill="url(#paint0_linear_8:827)"/>
<defs>
<linearGradient id="paint0_linear_8:827" x1="0" y1="-1.48012e-07" x2="10" y2="-5.32906e-07" gradientUnits="userSpaceOnUse">
<stop stop-color="#AB2780"/>
<stop offset="1" stop-color="#E3516D"/>
</linearGradient>
</defs>
</svg>
