<svg width="24" height="15" viewBox="0 0 24 15" fill="none" xmlns="http://www.w3.org/2000/svg">
<path d="M4.90265 2.86587C8.80457 -0.95529 15.1294 -0.95529 19.0364 2.86587L19.5058 3.32522C19.7027 3.51703 19.7027 3.82495 19.5058 4.01676L17.9007 5.59167C17.8047 5.68757 17.6432 5.68757 17.5473 5.59167L16.9012 4.9607C14.1804 2.29547 9.76365 2.29547 7.0429 4.9607L6.35136 5.6371C6.25545 5.733 6.09392 5.733 5.99801 5.6371L4.38777 4.06219C4.19091 3.87038 4.19091 3.56246 4.38777 3.37065L4.90265 2.86587ZM22.3578 6.11663L23.7864 7.51487C23.9832 7.70668 23.9832 8.0146 23.7864 8.20641L17.3403 14.5212C17.1435 14.713 16.8305 14.713 16.6337 14.5212L12.0553 10.0388C12.0049 9.99332 11.9291 9.99332 11.8787 10.0388L7.30538 14.5212C7.10852 14.713 6.79556 14.713 6.5987 14.5212L0.147647 8.21146C-0.0492157 8.01964 -0.0492157 7.71173 0.147647 7.51991L1.57617 6.12168C1.77303 5.92987 2.08599 5.92987 2.28285 6.12168L6.86118 10.6041C6.91166 10.6495 6.98738 10.6495 7.03785 10.6041L11.6111 6.12168C11.808 5.92987 12.121 5.92987 12.3178 6.12168L16.8961 10.6041C16.9466 10.6495 17.0223 10.6495 17.0728 10.6041L21.6511 6.12168C21.843 5.92482 22.161 5.92482 22.3578 6.11663Z" fill="white"/>
</svg>
