<svg width="14" height="11" viewBox="0 0 14 11" fill="none" xmlns="http://www.w3.org/2000/svg">
<path d="M4.39606 7.16861C4.35253 7.2573 4.35253 7.34489 4.35253 7.43303C4.39606 7.71432 4.6398 7.92107 4.9249 7.91726H5.62893V10.5158C5.62893 10.7802 5.40913 11 5.14471 11H3.64741C3.51933 10.9987 3.39688 10.9472 3.30642 10.8565C3.21596 10.7659 3.16471 10.6433 3.16372 10.5152V7.91781H0.608736C0.212648 7.91781 -0.0517729 7.52117 0.124508 7.16861L3.91128 0.298552C3.96142 0.208084 4.03487 0.132686 4.12399 0.0801864C4.21311 0.0276869 4.31466 0 4.41809 0C4.52152 0 4.62307 0.0276869 4.71219 0.0801864C4.80131 0.132686 4.87476 0.208084 4.9249 0.298552L6.50979 3.33722L4.39606 7.16861ZM13.0714 7.16861L9.28459 0.298552C9.2344 0.208215 9.16098 0.132942 9.07191 0.0805344C8.98285 0.0281263 8.88139 0.000490269 8.77805 0.000490269C8.67471 0.000490269 8.57325 0.0281263 8.48419 0.0805344C8.39512 0.132942 8.3217 0.208215 8.27151 0.298552L6.642 3.33777L8.75574 7.16807C8.79981 7.2573 8.79981 7.34544 8.79981 7.43303C8.75629 7.71432 8.512 7.92107 8.22744 7.91726H7.52232V10.5158C7.52504 10.7824 7.73995 10.9984 8.00655 11H9.59199C9.72017 10.9989 9.84279 10.9475 9.93353 10.857C10.0243 10.7665 10.0759 10.6439 10.0773 10.5158V7.91781H12.5866C12.9838 7.91781 13.2471 7.52117 13.0708 7.16861H13.0714Z" fill="white"/>
</svg>
