<svg width="15" height="11" viewBox="0 0 15 11" fill="none" xmlns="http://www.w3.org/2000/svg">
<path d="M4.46421 10.9744H0.000918707C-0.0130426 10.9134 -0.0119322 10.8503 0.00416716 10.7897C0.0202665 10.7292 0.0509401 10.6728 0.093904 10.6247C0.602876 10.0699 1.10043 9.50613 1.60125 8.94384C1.66962 8.8693 1.72045 8.78241 1.7505 8.68872C1.78055 8.59503 1.78917 8.49658 1.7758 8.39965C1.77331 8.35948 1.77331 8.31922 1.7758 8.27905C1.7758 6.29372 1.7758 4.30838 1.7758 2.32304C1.78462 2.11108 1.70321 1.90435 1.54904 1.74719C1.12327 1.29495 0.7187 0.820097 0.296188 0.363334C0.248243 0.315204 0.214154 0.256712 0.197051 0.193233C0.179949 0.129753 0.180381 0.0633195 0.198309 3.42895e-05H0.2864C1.67302 3.42895e-05 3.0591 3.42895e-05 4.44464 3.42895e-05C4.47434 -0.00296643 4.50425 0.00366206 4.52924 0.0187859C4.55424 0.0339098 4.57277 0.0565893 4.58167 0.0829451C5.66922 2.2939 6.75677 4.50485 7.84431 6.71581C7.85736 6.74143 7.87205 6.76555 7.89162 6.80625C7.92425 6.7339 7.95198 6.6751 7.97645 6.61631C8.92479 4.43852 9.87096 2.26073 10.8149 0.0829451C10.8212 0.0572735 10.8375 0.0346282 10.8606 0.0193342C10.8838 0.00404026 10.9123 -0.00283048 10.9406 3.42895e-05C12.2619 3.42895e-05 13.5833 3.42895e-05 14.9047 3.42895e-05H14.9911C15.0099 0.0584898 15.0106 0.120608 14.9933 0.179442C14.9761 0.238277 14.9414 0.291509 14.8933 0.333185C14.5197 0.652768 14.151 0.985919 13.7807 1.31304C13.7417 1.34585 13.711 1.38627 13.691 1.43138C13.6709 1.47648 13.662 1.52514 13.6649 1.57383C13.6649 1.62509 13.6649 1.67634 13.6649 1.72458V9.27549C13.6649 9.32674 13.6649 9.3795 13.6649 9.42623C13.6619 9.47371 13.6702 9.52122 13.6891 9.56546C13.7079 9.60971 13.737 9.64964 13.7742 9.68251C14.1282 10.0021 14.4773 10.3292 14.8394 10.6413C14.8963 10.6839 14.9382 10.7412 14.9597 10.8059C14.9812 10.8706 14.9813 10.9398 14.9601 11.0046H9.08738C9.07058 10.9463 9.07095 10.885 9.08845 10.827C9.10594 10.7689 9.13993 10.7162 9.18689 10.6744C9.55883 10.3579 9.91446 10.0262 10.2799 9.70361C10.3234 9.66713 10.3579 9.62237 10.381 9.57241C10.4041 9.52246 10.4152 9.46848 10.4136 9.41418C10.4136 7.32985 10.4136 5.24401 10.4136 3.15667C10.4136 3.14763 10.4136 3.14009 10.4136 3.10391C10.3908 3.15215 10.3761 3.17778 10.3647 3.20491C9.27716 5.76459 8.18961 8.32729 7.10206 10.893C7.07107 10.9639 7.03844 11 6.95035 10.991C6.86681 10.9834 6.78267 10.9834 6.69913 10.991C6.6696 10.9962 6.63902 10.9911 6.61338 10.9766C6.58773 10.9621 6.56886 10.9393 6.56046 10.9126C5.99929 9.77697 5.4392 8.64637 4.8802 7.52079C4.1646 6.07965 3.44953 4.63851 2.73501 3.19737C2.72307 3.16993 2.70264 3.14634 2.67629 3.12954V3.23205C2.67629 4.91539 2.67629 6.60023 2.67629 8.28659C2.67067 8.41427 2.67996 8.54214 2.70402 8.66798C2.73094 8.76497 2.78111 8.85513 2.85084 8.93179C3.35328 9.50362 3.86063 10.0709 4.37286 10.6337C4.41365 10.6811 4.44291 10.7361 4.45868 10.7949C4.47444 10.8537 4.47633 10.9149 4.46421 10.9744Z" fill="white"/>
</svg>
