<svg width="25" height="26" viewBox="0 0 25 26" fill="none" xmlns="http://www.w3.org/2000/svg">
<path d="M10.9873 17.6624C10.9873 16.8711 11.6181 16.2403 12.4898 16.2403C13.3385 16.2403 13.9463 16.8711 13.9463 17.6624C13.9463 18.4538 13.3385 19.1076 12.4898 19.1076C11.6181 19.0961 10.9873 18.4538 10.9873 17.6624ZM11.1135 6.03271H13.8546L13.3958 14.6805H11.5608L11.1135 6.03271Z" fill="white"/>
<path d="M23.42 25.0028C23.1104 25.0028 22.7204 24.9225 22.2502 24.6702C22.2158 24.6587 19.2223 23.1448 17.284 23.9591C15.7586 24.6013 14.1415 24.9225 12.467 24.9225C5.59695 24.9225 0 19.3255 0 12.4555C0 5.58548 5.58548 0 12.467 0C19.337 0 24.9339 5.59695 24.9339 12.467C24.9339 14.7952 24.2802 17.0776 23.6379 18.1213C23.5118 18.3392 23.4774 19.3943 23.8673 20.5527L24.5899 22.6631C25.0028 23.8673 24.5899 24.4522 24.3146 24.6931C24.1311 24.8422 23.8558 25.0028 23.42 25.0028ZM18.6144 22.3534C20.7133 22.3534 22.7663 23.3971 22.881 23.4544C23.1333 23.5806 23.2939 23.615 23.3741 23.6265C23.3741 23.5462 23.3627 23.3856 23.2709 23.1103L22.5484 21C22.1355 19.7958 21.9749 18.1671 22.4451 17.3987C22.8695 16.7106 23.5347 14.7723 23.5347 12.4784C23.5347 6.36538 18.5571 1.39924 12.4555 1.39924C6.34244 1.39924 1.3763 6.37685 1.3763 12.4784C1.3763 18.5915 6.35391 23.5576 12.4555 23.5576C13.935 23.5576 15.3801 23.2709 16.7335 22.6975C17.3414 22.4451 17.9836 22.3534 18.6144 22.3534Z" fill="white"/>
</svg>
