<svg width="33" height="38" viewBox="0 0 33 38" fill="none" xmlns="http://www.w3.org/2000/svg">
<path d="M6.368 0.309631C8.19049 1.69322 9.95559 3.04433 11.73 4.37235C12.2997 4.79818 12.8565 5.22257 13.2655 5.81584C13.8553 6.67617 14.1136 7.63465 14.1265 8.66747C14.1366 9.6144 14.1366 10.5613 14.1265 11.5083C14.1165 12.5534 13.5102 13.2405 12.525 13.3292C11.9984 13.3769 11.5829 13.1127 11.1818 12.8146C9.68795 11.7176 8.20413 10.6054 6.69949 9.52707C6.06951 9.07381 5.83058 8.48919 5.89085 7.73713C5.95112 6.98507 5.99704 6.23085 6.04512 5.47662C6.11926 4.31894 6.19101 3.16126 6.26037 2.00357C6.29625 1.45577 6.33069 0.911569 6.368 0.309631Z" fill="white"/>
<path d="M26.4513 0.352295C26.485 0.876284 26.5195 1.37573 26.5496 1.87518C26.6601 3.69759 26.7649 5.52073 26.8811 7.34386C26.9098 7.80073 27.0246 8.27131 26.8008 8.69786C26.6644 8.95985 26.4807 9.22979 26.2497 9.40373C24.6453 10.6098 23.0288 11.7942 21.41 12.9785C20.8425 13.3935 20.2218 13.4758 19.5947 13.1344C19.0157 12.819 18.7107 12.3167 18.7129 11.6383C18.7172 10.6192 18.7129 9.60004 18.7129 8.58094C18.7172 6.90865 19.4261 5.60301 20.7449 4.61133C22.0058 3.66584 23.2667 2.71818 24.5277 1.76836C25.1196 1.32232 25.7073 0.871953 26.2956 0.425191C26.3453 0.396435 26.3974 0.372045 26.4513 0.352295Z" fill="white"/>
<path d="M12.9493 24.6505C13.1531 24.0793 13.3571 23.5087 13.5613 22.9385C13.7357 22.4484 13.9201 21.9634 14.0808 21.4676C14.4044 20.4434 13.8577 19.2829 12.8417 18.7935C12.4073 18.5745 11.9284 18.4596 11.4425 18.4579C10.7293 18.4698 10.0355 18.224 9.48726 17.765C8.985 17.3529 8.49565 16.917 7.99985 16.4933C7.94873 16.4562 7.89529 16.4224 7.83984 16.3923L7.87931 16.3266C7.95106 16.3222 8.02855 16.3129 8.10389 16.3136C9.14142 16.3194 10.1804 16.2919 11.2158 16.3439C12.3243 16.3995 13.1818 16.9213 13.7328 17.9216C14.0421 18.4853 14.3972 19.0237 14.7058 19.5889C15.0868 20.2868 15.1011 20.9984 14.6957 21.6993C14.1217 22.6881 13.5477 23.6764 12.9737 24.6642L12.9493 24.6505Z" fill="white"/>
<path d="M19.9196 24.7212C19.337 23.7245 18.7996 22.7876 18.2442 21.8609C17.7527 21.041 17.7419 20.2384 18.2485 19.4214C18.6159 18.8288 18.9445 18.2118 19.3169 17.6228C19.7948 16.8664 20.5245 16.429 21.3819 16.3742C22.5723 16.2984 23.7712 16.3554 25.0068 16.3554C24.7428 16.5806 24.4895 16.7978 24.2355 17.0137C23.909 17.2922 23.5897 17.5795 23.2539 17.8451C22.7222 18.2659 22.1059 18.4427 21.435 18.4593C20.4348 18.4846 19.5831 18.8288 19.0213 19.7144C18.646 20.307 18.5908 20.9414 18.8275 21.6011C19.1667 22.5552 19.5073 23.5089 19.8493 24.4621C19.8701 24.5198 19.8816 24.5812 19.9196 24.7212Z" fill="white"/>
<path d="M16.4444 25.7172C16.4799 25.7208 16.5157 25.7208 16.5513 25.7172C17.1619 25.5837 17.5393 25.9489 17.893 26.3574C18.0746 26.5674 18.066 26.7479 17.8701 26.9478C17.5429 27.2798 17.2143 27.6118 16.8828 27.9402C16.8237 28.0012 16.753 28.0496 16.675 28.0827C16.597 28.1158 16.5132 28.1329 16.4286 28.1329C16.3439 28.1329 16.2601 28.1158 16.1821 28.0827C16.1041 28.0496 16.0335 28.0012 15.9744 27.9402C15.6429 27.612 15.314 27.2812 14.9878 26.9478C14.7998 26.7573 14.7776 26.5682 14.9512 26.3798C15.1477 26.1711 15.3569 25.9749 15.5776 25.7923C15.6523 25.7444 15.7396 25.7205 15.828 25.7237C16.0347 25.7115 16.2384 25.7179 16.4444 25.7172Z" fill="white"/>
</svg>
