<svg width="65" height="78" viewBox="0 0 65 78" fill="none" xmlns="http://www.w3.org/2000/svg">
<path d="M29.0174 40.5807L26.7242 36.6921C25.6523 34.8724 23.4588 33.7258 21.0658 33.7258H14.2109L17.9001 36.8417C18.9969 37.7639 20.4675 38.2874 22.013 38.2874C23.8825 38.2874 25.6274 39.0601 26.7242 40.3314C27.8209 41.6276 28.145 43.2478 27.5966 44.7684L25.0042 51.9722L29.0423 45.1173C29.8649 43.6716 29.8649 42.0015 29.0174 40.5807Z" fill="white"/>
<path d="M38.5148 36.6673L36.2216 40.5558C35.3741 41.9767 35.3741 43.6468 36.2216 45.0925L40.2597 51.9474L37.6673 44.7435C37.1189 43.223 37.443 41.5778 38.5398 40.3066C39.6365 39.0104 41.3814 38.2626 43.2509 38.2626C44.7964 38.2626 46.267 37.7391 47.3638 36.8168L51.053 33.701H44.1981C41.7802 33.701 39.5867 34.8476 38.5148 36.6673Z" fill="white"/>
<path d="M34.6015 53.6672C34.4519 53.5177 34.2525 53.4429 34.0531 53.4429H31.1865C30.9871 53.4429 30.7877 53.5177 30.6381 53.6672L29.4167 54.8886C29.1176 55.1878 29.1176 55.6863 29.4167 56.0103L31.7598 58.3535C31.9094 58.503 32.1088 58.5778 32.3082 58.5778H32.9314C33.1308 58.5778 33.3302 58.503 33.4798 58.3535L35.8229 56.0103C36.122 55.7112 36.122 55.2127 35.8229 54.8886L34.6015 53.6672Z" fill="white"/>
<path d="M54.8917 16.2772L53.8697 0.0249481L42.2289 8.79916C39.2127 10.6437 37.3682 13.9091 37.3682 17.3989V24.0792C37.3682 26.8461 40.4591 28.5162 42.852 27.0455L53.2216 19.4927C54.1937 18.8945 54.8169 17.8725 54.8917 16.7508C54.8917 16.5763 54.8917 16.4267 54.8917 16.2772Z" fill="white"/>
<path d="M27.7714 24.0543V17.3739C27.7714 13.8842 25.9268 10.6188 22.9107 8.77421L11.2699 0L10.2479 16.2522C10.2479 16.4018 10.223 16.5513 10.2479 16.7009C10.3227 17.8226 10.9458 18.8446 11.918 19.4429L22.2875 26.9956C24.6805 28.5162 27.7714 26.8212 27.7714 24.0543Z" fill="white"/>
<path d="M0.00314529 74.6058C-0.0217814 74.3814 0.102853 74.2568 0.327194 74.2568H1.5486C1.77294 74.2568 1.87265 74.3814 1.89758 74.6058C1.97236 75.4034 2.34626 75.7025 3.24362 75.7025H5.93571C6.98263 75.7025 7.35653 75.4533 7.35653 74.6556C7.35653 73.8829 7.00756 73.6835 6.08527 73.6087L3.01928 73.3844C0.900507 73.2099 0.0779262 72.5368 0.0779262 70.7172C0.0779262 68.8726 0.975288 67.8506 3.36825 67.8506H5.88585C8.05448 67.8506 9.02662 68.8228 9.12633 70.767C9.15126 70.9914 9.02662 71.116 8.80228 71.116H7.55595C7.33161 71.116 7.2319 70.9914 7.20697 70.767C7.13219 69.9694 6.75829 69.6703 5.88585 69.6703H3.39318C2.34626 69.6703 1.97236 69.9195 1.97236 70.7172C1.97236 71.465 2.32133 71.6644 3.24362 71.7392L6.30961 71.9635C8.40345 72.138 9.27589 72.8609 9.27589 74.6556C9.27589 76.5002 8.37853 77.5222 5.98556 77.5222H3.24362C1.07499 77.5222 0.102852 76.5251 0.00314529 74.6058Z" fill="white"/>
<path d="M18.8473 77.248L18.1992 75.8271H12.6655L12.0174 77.248C11.9426 77.4224 11.793 77.4972 11.5936 77.4972H10.1977C9.92353 77.4972 9.82382 77.3227 9.92353 77.0984L14.2857 68.05C14.3605 67.8755 14.4851 67.8007 14.6845 67.8007H16.1303C16.3297 67.8007 16.4543 67.8755 16.5291 68.05L20.8664 77.0984C20.9661 77.3227 20.8664 77.4972 20.5922 77.4972H19.1963C19.0716 77.5221 18.9221 77.4224 18.8473 77.248ZM17.4763 74.2817L15.4323 69.8198L13.3634 74.2817H17.4763Z" fill="white"/>
<path d="M21.9639 77.1732V68.1746C21.9639 67.9503 22.0885 67.8257 22.3128 67.8257H23.5343C23.7586 67.8257 23.8832 67.9503 23.8832 68.1746V71.8139H29.0929V68.1746C29.0929 67.9503 29.2175 67.8257 29.4419 67.8257H30.6882C30.9126 67.8257 31.0372 67.9503 31.0372 68.1746V77.1732C31.0372 77.3975 30.9126 77.5222 30.6882 77.5222H29.4419C29.2175 77.5222 29.0929 77.3975 29.0929 77.1732V73.484H23.8832V77.1732C23.8832 77.3975 23.7586 77.5222 23.5343 77.5222H22.3128C22.0885 77.5222 21.9639 77.3975 21.9639 77.1732Z" fill="white"/>
<path d="M40.9577 77.248L40.3096 75.8271H34.7758L34.1277 77.248C34.0529 77.4224 33.9034 77.4972 33.704 77.4972H32.3081C32.0339 77.4972 31.9342 77.3227 32.0339 77.0984L36.3961 68.05C36.4708 67.8755 36.5955 67.8007 36.7949 67.8007H38.2406C38.4401 67.8007 38.5647 67.8755 38.6395 68.05L42.9767 77.0984C43.0764 77.3227 42.9767 77.4972 42.7025 77.4972H41.3565C41.1571 77.5221 41.0324 77.4224 40.9577 77.248ZM39.5867 74.2817L37.5427 69.8198L35.4738 74.2817H39.5867Z" fill="white"/>
<path d="M51.2527 74.7802L52.8729 77.0984C53.0474 77.3227 52.9228 77.4972 52.6486 77.4972H51.2278C51.0533 77.4972 50.9037 77.4224 50.804 77.2729L49.3084 74.9547H45.9433V77.1482C45.9433 77.3726 45.8187 77.4972 45.5943 77.4972H44.3729C44.1486 77.4972 44.0239 77.3726 44.0239 77.1482V68.1497C44.0239 67.9254 44.1486 67.8007 44.3729 67.8007H49.3582C52.175 67.8007 53.2468 68.9723 53.2468 71.2905V71.4899C53.2717 73.2098 52.7234 74.3315 51.2527 74.7802ZM51.3524 71.3403C51.3524 69.9195 50.7292 69.6453 49.2336 69.6453H45.9682V73.16H49.2336C50.7043 73.16 51.3524 72.9107 51.3524 71.5148V71.3403Z" fill="white"/>
<path d="M62.918 77.248L62.2699 75.8271H56.7361L56.088 77.248C56.0133 77.4224 55.8637 77.4972 55.6643 77.4972H54.2684C54.0191 77.4972 53.8945 77.3227 54.0191 77.0984L58.3813 68.05C58.4561 67.8755 58.5807 67.8007 58.7801 67.8007H60.2259C60.4253 67.8007 60.5499 67.8755 60.6247 68.05L64.962 77.0984C65.0617 77.3227 64.9619 77.4972 64.6878 77.4972H63.2919C63.1423 77.5221 63.0177 77.4224 62.918 77.248ZM61.5719 74.2817L59.5279 69.8198L57.459 74.2817H61.5719Z" fill="white"/>
</svg>
